# Blender v2.79 (sub 0) OBJ File: 'hall.blend'
# www.blender.org
mtllib book.mtl
o Cube.005
v -9.030169 5.259361 9.425720
v -9.029306 5.259155 9.669921
v -9.030313 4.124714 9.424760
v -9.029449 4.124507 9.668961
v -9.856123 5.259463 9.428638
v -9.855260 5.259256 9.672839
v -9.856266 4.124815 9.427678
v -9.855403 4.124609 9.671879
v -8.963655 5.259284 9.506886
v -8.963368 5.259215 9.588286
v -8.963511 4.124568 9.587326
v -8.963799 4.124637 9.505926
v -9.094012 4.124722 9.424985
v -9.093149 4.124516 9.669186
v -9.093869 5.259369 9.425945
v -9.093007 5.259162 9.670146
v -9.032463 5.259293 9.507130
v -9.032176 5.259224 9.588530
v -9.032606 4.124646 9.506169
v -9.032318 4.124577 9.587569
v -8.979746 5.259183 9.629045
v -8.979888 4.124536 9.628085
v -9.855547 4.124643 9.631179
v -9.855404 5.259290 9.632139
v -9.062592 5.259193 9.629338
v -9.062734 4.124546 9.628378
v -8.980464 4.124674 9.465284
v -9.856122 4.124781 9.468378
v -9.855979 5.259428 9.469338
v -8.980321 5.259321 9.466245
v -9.063309 4.124684 9.465577
v -9.063167 5.259331 9.466537
v -9.805752 4.170953 9.624397
v -9.805884 4.170985 9.587020
v -9.806149 4.171048 9.512264
v -9.805621 5.212980 9.625279
v -9.805753 5.213011 9.587902
v -9.806017 5.213075 9.513146
v -9.049987 4.170955 9.509592
v -9.049723 4.170892 9.584348
v -9.049856 5.212982 9.510474
v -9.049592 5.212919 9.585230
v -9.077525 5.212891 9.622706
v -9.077656 4.170864 9.621824
v -9.806280 4.171080 9.474886
v -9.806149 5.213106 9.475768
v -9.078184 4.170990 9.472313
v -9.078053 5.213017 9.473195
vt 0.452357 0.955704
vt 0.428139 0.955705
vt 0.428138 0.352071
vt 0.452357 0.352071
vt 0.122913 0.545584
vt 0.127657 0.493748
vt 0.334291 0.479478
vt 0.337831 0.530742
vt 0.400830 0.446370
vt 0.400830 0.491175
vt 0.036143 0.491175
vt 0.036143 0.446370
vt 0.610321 0.498903
vt 0.617744 0.523756
vt 0.602271 0.523756
vt 0.590197 0.498903
vt 0.617755 0.352070
vt 0.971276 0.352070
vt 0.971276 0.955703
vt 0.617755 0.955703
vt 0.383108 0.352071
vt 0.383109 0.955705
vt 0.610321 0.399491
vt 0.602898 0.424344
vt 0.586184 0.424344
vt 0.590197 0.399491
vt 0.602898 0.474050
vt 0.586184 0.474050
vt 0.098377 0.893870
vt 0.058826 0.722007
vt 0.071426 0.719794
vt 0.108165 0.880770
vt 0.063475 0.595701
vt 0.054298 0.554320
vt 0.067411 0.555943
vt 0.074371 0.597534
vt 0.369284 0.715917
vt 0.345863 0.894344
vt 0.335030 0.881427
vt 0.356197 0.716010
vt 0.351650 0.676868
vt 0.339546 0.676349
vt 0.548506 0.955704
vt 0.524287 0.955704
vt 0.524287 0.352070
vt 0.548506 0.352070
vt 0.476576 0.955704
vt 0.476576 0.352070
vt 0.106597 0.701235
vt 0.099517 0.598708
vt 0.118169 0.597420
vt 0.125250 0.699947
vt 0.114616 0.752189
vt 0.137074 0.750638
vt 0.351057 0.544127
vt 0.344269 0.587774
vt 0.332764 0.590707
vt 0.338078 0.546118
vt 0.029587 0.352073
vt 0.029589 0.955706
vt 0.572725 0.352070
vt 0.572725 0.955703
vt 0.802906 0.498903
vt 0.802906 0.523756
vt 0.100455 0.547135
vt 0.110389 0.494941
vt 0.083676 0.373390
vt 0.320234 0.373390
vt 0.310217 0.386019
vt 0.094200 0.385995
vt 0.065739 0.680328
vt 0.076772 0.677922
vt 0.802905 0.374638
vt 0.802905 0.399491
vt 0.617744 0.374638
vt 0.131631 0.802522
vt 0.148898 0.801329
vt 0.351991 0.735796
vt 0.355531 0.787059
vt 0.400830 0.401521
vt 0.400830 0.446326
vt 0.036143 0.446326
vt 0.036143 0.401521
vt 0.602271 0.374638
vt 0.962917 0.229799
vt 0.962917 0.245160
vt 0.481992 0.245160
vt 0.481992 0.229799
vt 0.962917 0.275883
vt 0.481992 0.275883
vt 0.502791 0.287201
vt 0.485178 0.272878
vt 0.959732 0.272878
vt 0.959732 0.287201
vt 0.485178 0.244232
vt 0.959732 0.244232
vt 0.955320 0.244121
vt 0.955320 0.272988
vt 0.481715 0.272988
vt 0.481715 0.244121
vt 0.955320 0.229688
vt 0.499293 0.229688
vt 0.955320 0.287421
vt 0.499293 0.287421
vt 0.962917 0.291244
vt 0.481992 0.291244
vt 0.502791 0.229908
vt 0.959732 0.229908
vn 0.6096 0.6550 0.4464
vn 0.2615 0.6380 0.7243
vn 0.2613 -0.6393 0.7232
vn 0.6094 -0.6560 0.4453
vn -0.2318 -0.8848 -0.4041
vn 0.0024 -0.7077 0.7065
vn -0.5754 -0.5777 0.5789
vn -0.5927 -0.5894 -0.5488
vn -0.5752 0.5769 0.5799
vn -0.5926 0.5905 -0.5478
vn -0.2316 0.8856 -0.4026
vn 0.0026 0.7065 0.7077
vn -0.0026 -0.7065 -0.7077
vn -0.5795 -0.5768 -0.5758
vn -0.5793 0.5779 -0.5748
vn -0.0024 0.7077 -0.7065
vn -0.2287 0.8849 0.4058
vn -0.4548 0.8779 0.1499
vn 0.7313 0.6664 -0.1449
vn 0.6064 0.6558 -0.4496
vn -0.4559 0.8781 -0.1452
vn 0.7323 0.6662 0.1408
vn -0.2733 0.7114 -0.6475
vn -0.3523 0.3562 -0.8654
vn -0.2687 0.7103 0.6506
vn -0.6014 0.7706 0.2109
vn -0.3524 -0.3547 -0.8660
vn -0.2734 -0.7102 -0.6487
vn -0.4561 -0.8777 -0.1467
vn -0.6030 -0.7704 -0.2066
vn 0.7312 -0.6664 -0.1460
vn 0.6062 -0.6552 -0.4507
vn 0.7322 -0.6666 0.1397
vn -0.4550 -0.8780 0.1484
vn -0.2289 -0.8855 0.4042
vn -0.6016 -0.7708 0.2096
vn -0.2689 -0.7113 0.6494
vn 0.2562 -0.6381 -0.7261
vn 0.2564 0.6392 -0.7250
vn -0.5887 0.5896 0.5530
vn -0.5889 -0.5904 0.5520
vn -0.3463 -0.3561 0.8679
vn -0.3462 0.3547 0.8685
vn -0.6029 0.7710 -0.2053
vn -0.7072 -0.7070 0.0019
vn -0.7070 0.7072 0.0031
usemtl None
s 1
f 21/1/1 2/2/2 4/3/3 22/4/4
f 26/5/5 14/6/6 8/7/7 23/8/8
f 23/9/8 8/10/7 6/11/9 24/12/10
f 25/13/11 16/14/12 2/15/2 21/16/1
f 13/17/13 7/18/14 5/19/15 15/20/16
f 14/21/6 4/3/3 2/2/2 16/22/12
f 32/23/17 17/24/18 9/25/19 30/26/20
f 17/24/18 18/27/21 10/28/22 9/25/19
f 24/29/10 25/30/11 43/31/23 36/32/24
f 17/33/18 32/34/17 48/35/25 41/36/26
f 26/37/5 23/38/8 33/39/27 44/40/28
f 20/41/29 26/37/5 44/40/28 40/42/30
f 30/43/20 9/44/19 12/45/31 27/46/32
f 9/44/19 10/47/22 11/48/33 12/45/31
f 12/49/31 11/50/33 20/51/29 19/52/34
f 27/53/32 12/49/31 19/52/34 31/54/35
f 31/55/35 19/56/34 39/57/36 47/58/37
f 23/38/8 24/29/10 36/32/24 33/39/27
f 8/59/7 14/21/6 16/22/12 6/60/9
f 3/61/38 13/17/13 15/20/16 1/62/39
f 24/63/10 6/64/9 16/14/12 25/13/11
f 22/65/4 4/66/3 14/6/6 26/5/5
f 11/50/33 22/65/4 26/5/5 20/51/29
f 19/56/34 20/41/29 40/42/30 39/57/36
f 18/27/21 25/13/11 21/16/1 10/28/22
f 29/67/40 28/68/41 45/69/42 46/70/43
f 25/30/11 18/71/21 42/72/44 43/31/23
f 10/47/22 21/1/1 22/4/4 11/48/33
f 5/73/15 29/74/40 32/23/17 15/75/16
f 3/76/38 27/53/32 31/54/35 13/77/13
f 1/62/39 30/43/20 27/46/32 3/61/38
f 13/77/13 31/54/35 28/78/41 7/79/14
f 7/80/14 28/81/41 29/82/40 5/83/15
f 15/75/16 32/23/17 30/26/20 1/84/39
f 45/85/42 35/86/45 38/87/46 46/88/43
f 35/86/45 34/89/45 37/90/46 38/87/46
f 47/91/37 39/92/36 35/93/45 45/94/42
f 39/92/36 40/95/30 34/96/45 35/93/45
f 38/97/46 37/98/46 42/99/44 41/100/26
f 46/101/43 38/97/46 41/100/26 48/102/25
f 37/98/46 36/103/24 43/104/23 42/99/44
f 34/89/45 33/105/27 36/106/24 37/90/46
f 40/95/30 44/107/28 33/108/27 34/96/45
f 28/68/41 31/55/35 47/58/37 45/69/42
f 18/71/21 17/33/18 41/36/26 42/72/44
f 32/34/17 29/67/40 46/70/43 48/35/25
