# Blender v2.79 (sub 0) OBJ File: 'hall.blend'
# www.blender.org
mtllib bookshelf.mtl
o Cube.004
v -10.591319 0.000000 10.063343
v -10.591319 5.544555 10.063343
v -10.591319 0.000000 5.659619
v -10.591319 5.544555 5.659619
v -8.759122 0.000000 10.063343
v -8.759122 5.544555 10.063343
v -8.759122 0.000000 5.659619
v -8.759122 5.544555 5.659619
v -8.759122 5.364024 5.934859
v -8.759122 0.180531 5.934859
v -8.759122 0.180531 9.788103
v -8.759122 5.364024 9.788103
v -9.994976 5.364024 5.934859
v -9.994976 0.180531 5.934859
v -9.994976 0.180531 9.788103
v -9.994976 5.364024 9.788103
v -8.933173 1.092299 5.934859
v -8.933173 1.092299 9.788103
v -9.994980 1.092299 5.934859
v -9.994980 1.092299 9.788103
v -8.933173 1.332904 9.788103
v -8.933173 1.332904 5.934859
v -9.994980 1.332904 9.788103
v -9.994980 1.332904 5.934859
v -8.933173 2.472614 5.934859
v -8.933173 2.472614 9.788103
v -9.994980 2.472614 5.934859
v -9.994980 2.472614 9.788103
v -8.933173 2.713220 9.788103
v -8.933173 2.713220 5.934859
v -9.994980 2.713220 9.788103
v -9.994980 2.713220 5.934859
v -8.933173 3.865593 5.934859
v -8.933173 3.865593 9.788103
v -9.994980 3.865593 5.934859
v -9.994980 3.865593 9.788103
v -8.933173 4.106199 9.788103
v -8.933173 4.106199 5.934859
v -9.994980 4.106199 9.788103
v -9.994980 4.106199 5.934859
vt -0.001103 0.989282
vt -0.001071 0.286230
vt 0.122048 0.283027
vt 0.122015 0.986079
vt 0.630062 0.975145
vt 0.630126 0.020419
vt 0.755788 0.020917
vt 0.755725 0.975644
vt 0.077566 0.988678
vt 0.077552 0.008261
vt 0.119234 0.005416
vt 0.119248 0.985834
vt 0.630062 0.975145
vt 0.630126 0.020419
vt 0.755788 0.020917
vt 0.755725 0.975644
vt 0.121281 0.009273
vt 0.244822 0.009273
vt 0.244822 0.986789
vt 0.121281 0.986789
vt 0.121281 0.009273
vt 0.244822 0.009273
vt 0.244822 0.986789
vt 0.121281 0.986789
vt 0.619353 0.959668
vt 0.618527 0.040660
vt 0.762561 0.042301
vt 0.763386 0.961308
vt 0.077566 0.988678
vt 0.077552 0.008261
vt 0.119234 0.005416
vt 0.119248 0.985834
vt 0.077566 0.988678
vt 0.077552 0.008261
vt 0.119234 0.005416
vt 0.119248 0.985834
vt 0.077566 0.988678
vt 0.077552 0.008261
vt 0.119234 0.005416
vt 0.119248 0.985834
vt 0.006470 0.989247
vt 0.006282 0.254053
vt 0.115522 0.252894
vt 0.115710 0.988088
vt 0.630062 0.975145
vt 0.630126 0.020419
vt 0.755788 0.020917
vt 0.755725 0.975644
vt 0.630062 0.975145
vt 0.630126 0.020419
vt 0.755788 0.020917
vt 0.755725 0.975644
vt 0.619353 0.959668
vt 0.618527 0.040660
vt 0.762561 0.042301
vt 0.763386 0.961308
vt 0.866907 0.956901
vt 0.761015 0.953250
vt 0.763053 0.045067
vt 0.868946 0.048718
vt 0.003885 0.959668
vt 0.003204 0.040660
vt 0.122044 0.042301
vt 0.122726 0.961308
vt 0.379171 0.009273
vt 0.502712 0.009273
vt 0.502712 0.986789
vt 0.379171 0.986789
vt 0.379171 0.009273
vt 0.502712 0.009273
vt 0.502712 0.986789
vt 0.379171 0.986789
vt 0.379171 0.009273
vt 0.502712 0.009273
vt 0.502712 0.986789
vt 0.379171 0.986789
vt 0.195171 0.870917
vt 0.195132 0.125698
vt 0.246527 0.125146
vt 0.246566 0.870365
vt 0.866907 0.956901
vt 0.761015 0.953250
vt 0.763053 0.045067
vt 0.868946 0.048718
vt 0.626326 0.959668
vt 0.625559 0.040660
vt 0.759524 0.042301
vt 0.760292 0.961308
vt 0.379171 0.009273
vt 0.502712 0.009273
vt 0.502712 0.986789
vt 0.379171 0.986789
vt 0.077356 0.870917
vt 0.077317 0.125698
vt 0.128712 0.125146
vt 0.128751 0.870365
vt 0.866907 0.956901
vt 0.761015 0.953250
vt 0.763053 0.045067
vt 0.868946 0.048718
vt 0.619353 0.959668
vt 0.618527 0.040660
vt 0.762561 0.042301
vt 0.763386 0.961308
vt 0.379171 0.009273
vt 0.502712 0.009273
vt 0.502712 0.986789
vt 0.379171 0.986789
vt 0.329108 0.870917
vt 0.329069 0.125698
vt 0.380464 0.125146
vt 0.380503 0.870365
vn -0.5773 -0.5773 0.5773
vn -0.5773 0.5773 0.5773
vn -0.5773 0.5773 -0.5773
vn -0.5773 -0.5773 -0.5773
vn 0.5773 0.5773 -0.5773
vn 0.5773 -0.5773 -0.5773
vn 0.5773 0.5773 0.5773
vn 0.5773 -0.5773 0.5773
vn 0.9045 0.3015 -0.3015
vn 0.9045 -0.3015 -0.3015
vn 0.9045 -0.3015 0.3015
vn 0.9045 0.3015 0.3015
vn 0.7071 -0.7071 0.0000
vn -0.7071 -0.7071 0.0000
vn 0.7071 0.7071 0.0000
vn -0.7071 0.7071 0.0000
usemtl None
s 1
f 1/1/1 2/2/2 4/3/3 3/4/4
f 3/5/4 4/6/3 8/7/5 7/8/6
f 6/9/7 5/10/8 11/11/9 12/12/10
f 5/13/8 6/14/7 2/15/2 1/16/1
f 3/17/4 7/18/6 5/19/8 1/20/1
f 8/21/5 4/22/3 2/23/2 6/24/7
f 9/25/11 12/26/10 16/27/6 13/28/8
f 5/29/8 7/30/6 10/31/12 11/32/9
f 8/33/5 6/34/7 12/35/10 9/36/11
f 7/37/6 8/38/5 9/39/11 10/40/12
f 14/41/7 13/42/8 16/43/6 15/44/5
f 10/45/12 9/46/11 13/47/8 14/48/7
f 12/49/10 11/50/9 15/51/5 16/52/6
f 11/53/9 10/54/12 14/55/7 15/56/5
f 18/57/8 20/58/1 19/59/4 17/60/6
f 21/61/7 22/62/5 24/63/3 23/64/2
f 20/65/1 18/66/8 21/67/7 23/68/2
f 19/69/4 20/70/1 23/71/2 24/72/3
f 17/73/6 19/74/4 24/75/3 22/76/5
f 18/77/8 17/78/6 22/79/5 21/80/7
f 26/81/13 28/82/14 27/83/14 25/84/13
f 29/85/15 30/86/15 32/87/16 31/88/16
f 27/89/14 28/90/14 31/91/16 32/92/16
f 26/93/13 25/94/13 30/95/15 29/96/15
f 34/97/13 36/98/14 35/99/14 33/100/13
f 37/101/15 38/102/15 40/103/16 39/104/16
f 35/105/14 36/106/14 39/107/16 40/108/16
f 34/109/13 33/110/13 38/111/15 37/112/15
