# Blender v2.79 (sub 0) OBJ File: 'hall.blend'
# www.blender.org
mtllib chair.mtl
o Cube.009_Cube.008
v -2.223860 -0.319989 -6.805095
v -2.223860 1.066911 -6.805095
v -2.223860 -0.319989 -7.108774
v -2.223860 1.066911 -7.108774
v -1.920181 -0.319989 -6.805095
v -1.920181 1.066911 -6.805095
v -1.920181 -0.319989 -7.108774
v -1.920181 1.066911 -7.108774
v -3.334202 -0.319989 -6.805095
v -3.334202 1.066911 -6.805095
v -3.334202 -0.319989 -7.108774
v -3.334202 1.066911 -7.108774
v -3.030523 -0.319989 -6.805095
v -3.030523 1.066911 -6.805095
v -3.030523 -0.319989 -7.108774
v -3.030523 1.066911 -7.108774
v -2.223860 -0.319989 -7.941060
v -2.223860 1.066911 -7.941060
v -2.223860 -0.319989 -8.244739
v -2.223860 1.066911 -8.244739
v -1.920181 -0.319989 -7.941060
v -1.920181 1.066911 -7.941060
v -1.920181 -0.319989 -8.244739
v -1.920181 1.066911 -8.244739
v -3.334202 -0.319989 -7.941060
v -3.334202 1.066911 -7.941060
v -3.334202 -0.319989 -8.244739
v -3.334202 1.066911 -8.244739
v -3.030523 -0.319989 -7.941060
v -3.030523 1.066911 -7.941060
v -3.030523 -0.319989 -8.244739
v -3.030523 1.066911 -8.244739
v -2.223860 1.123916 -8.017349
v -2.223860 3.284847 -8.320339
v -2.223860 1.104706 -8.154353
v -2.223860 3.265638 -8.457343
v -1.920181 1.123916 -8.017349
v -1.920181 3.284847 -8.320339
v -1.920181 1.104706 -8.154353
v -1.920181 3.265638 -8.457343
v -3.356713 1.123916 -8.017349
v -3.356713 3.284847 -8.320339
v -3.356713 1.104706 -8.154353
v -3.356713 3.265638 -8.457343
v -3.053034 1.123916 -8.017349
v -3.053034 3.284847 -8.320339
v -3.053034 1.104706 -8.154353
v -3.053034 3.265638 -8.457343
v -3.501913 2.796549 -8.155252
v -3.501913 3.228894 -8.218538
v -3.501913 2.773976 -8.291741
v -3.501913 3.206321 -8.355028
v -1.750311 2.796549 -8.155252
v -1.750311 3.228894 -8.218538
v -1.750311 2.773976 -8.291741
v -1.750311 3.206321 -8.355028
v -3.501913 2.244937 -8.066282
v -3.501913 2.677282 -8.129569
v -3.501913 2.222364 -8.202772
v -3.501913 2.654709 -8.266058
v -1.750311 2.244937 -8.066282
v -1.750311 2.677282 -8.129569
v -1.750311 2.222364 -8.202772
v -1.750311 2.654709 -8.266058
v -3.381622 1.187804 -6.648370
v -3.381622 1.189177 -7.185073
v -3.381622 1.017900 -6.645653
v -3.381622 1.019274 -7.182356
v -1.870601 1.187804 -6.648370
v -1.870601 1.189177 -7.185073
v -1.870601 1.017900 -6.645653
v -1.870601 1.019274 -7.182356
v -3.381622 1.187804 -7.217039
v -3.381622 1.189177 -7.753741
v -3.381622 1.017900 -7.214321
v -3.381622 1.019274 -7.751024
v -1.870601 1.187804 -7.217039
v -1.870601 1.189177 -7.753741
v -1.870601 1.017900 -7.214321
v -1.870601 1.019274 -7.751024
v -3.381622 1.187804 -7.776333
v -3.381622 1.189177 -8.313036
v -3.381622 1.017900 -7.773616
v -3.381622 1.019274 -8.310318
v -1.870601 1.187804 -7.776333
v -1.870601 1.189177 -8.313036
v -1.870601 1.017900 -7.773616
v -1.870601 1.019274 -8.310318
v -2.708129 0.938324 -6.751361
v -2.962219 0.936951 -6.751362
v -2.706843 1.108228 -6.751362
v -2.960932 1.106855 -6.751362
v -2.708129 0.938324 -8.271647
v -2.962219 0.936951 -8.271647
v -2.706843 1.108228 -8.271647
v -2.960932 1.106855 -8.271647
v -2.267884 0.938324 -6.751361
v -2.521973 0.936951 -6.751362
v -2.266597 1.108228 -6.751362
v -2.520686 1.106855 -6.751362
v -2.267884 0.938324 -8.271647
v -2.521973 0.936951 -8.271647
v -2.266597 1.108228 -8.271647
v -2.520686 1.106855 -8.271647
vt 0.997413 0.000079
vt 0.997393 1.000079
vt 0.868212 0.999921
vt 0.868232 -0.000079
vt 0.997413 0.000079
vt 0.997393 1.000079
vt 0.868212 0.999921
vt 0.868232 -0.000079
vt 0.997413 0.000079
vt 0.997393 1.000079
vt 0.868212 0.999921
vt 0.868232 -0.000079
vt 0.997413 0.000079
vt 0.997393 1.000079
vt 0.868212 0.999921
vt 0.868232 -0.000079
vt 0.134173 0.357782
vt 0.234577 0.357782
vt 0.234577 0.714093
vt 0.134173 0.714093
vt 0.120850 0.000079
vt 0.120830 1.000079
vt 0.002587 0.999921
vt 0.002607 -0.000079
vt 0.120850 0.000079
vt 0.120830 1.000079
vt 0.002587 0.999921
vt 0.002607 -0.000079
vt 0.120850 0.000079
vt 0.120830 1.000079
vt 0.002587 0.999921
vt 0.002607 -0.000079
vt 0.120850 0.000079
vt 0.120830 1.000079
vt 0.002587 0.999921
vt 0.002607 -0.000079
vt 0.760736 0.357782
vt 0.861139 0.357782
vt 0.861139 0.714093
vt 0.760736 0.714093
vt 0.886475 0.000079
vt 0.886455 1.000079
vt 0.757275 0.999921
vt 0.757295 -0.000079
vt 0.886475 0.000079
vt 0.886455 1.000079
vt 0.757275 0.999921
vt 0.757295 -0.000079
vt 0.886475 0.000079
vt 0.886455 1.000079
vt 0.757275 0.999921
vt 0.757295 -0.000079
vt 0.886475 0.000079
vt 0.886455 1.000079
vt 0.757275 0.999921
vt 0.757295 -0.000079
vt 0.509173 0.357782
vt 0.609577 0.357782
vt 0.609577 0.714093
vt 0.509173 0.714093
vt 0.502638 0.000079
vt 0.502620 1.000079
vt 0.387987 0.999921
vt 0.388005 -0.000079
vt 0.502638 0.000079
vt 0.502620 1.000079
vt 0.387987 0.999921
vt 0.388005 -0.000079
vt 0.502638 0.000079
vt 0.502620 1.000079
vt 0.387987 0.999921
vt 0.388005 -0.000079
vt 0.502638 0.000079
vt 0.502620 1.000079
vt 0.387987 0.999921
vt 0.388005 -0.000079
vt 0.641986 0.357782
vt 0.742389 0.357782
vt 0.742389 0.714093
vt 0.641986 0.714093
vt 0.502833 0.999589
vt 0.502923 -0.000411
vt 0.612792 0.000411
vt 0.612702 1.000411
vt 0.502833 0.999589
vt 0.502923 -0.000411
vt 0.612792 0.000411
vt 0.612702 1.000411
vt 0.502833 0.999589
vt 0.502923 -0.000411
vt 0.612792 0.000411
vt 0.612702 1.000411
vt 0.502833 0.999589
vt 0.502923 -0.000411
vt 0.612792 0.000411
vt 0.612702 1.000411
vt 0.386453 0.162962
vt 0.494797 0.162962
vt 0.494797 0.837038
vt 0.386453 0.837038
vt 0.384083 0.999589
vt 0.384173 -0.000411
vt 0.494042 0.000411
vt 0.493952 1.000411
vt 0.384083 0.999589
vt 0.384173 -0.000411
vt 0.494042 0.000411
vt 0.493952 1.000411
vt 0.384083 0.999589
vt 0.384173 -0.000411
vt 0.494042 0.000411
vt 0.493952 1.000411
vt 0.384083 0.999589
vt 0.384173 -0.000411
vt 0.494042 0.000411
vt 0.493952 1.000411
vt 0.386453 0.162962
vt 0.494797 0.162962
vt 0.494797 0.837038
vt 0.386453 0.837038
vt 0.255203 0.162962
vt 0.363547 0.162962
vt 0.363547 0.837038
vt 0.255203 0.837038
vt 0.378777 0.000000
vt 0.502473 0.000000
vt 0.502473 1.000000
vt 0.378777 1.000000
vt 0.508328 0.162962
vt 0.616672 0.162962
vt 0.616672 0.837038
vt 0.508328 0.837038
vt 0.378777 0.000000
vt 0.502473 0.000000
vt 0.502473 1.000000
vt 0.378777 1.000000
vt 0.258327 0.962395
vt 0.258328 0.059802
vt 0.369801 0.059815
vt 0.369800 0.962407
vt 0.258327 0.962395
vt 0.258328 0.059802
vt 0.369801 0.059815
vt 0.369800 0.962407
vt 0.130203 0.162962
vt 0.238547 0.162962
vt 0.238547 0.837038
vt 0.130203 0.837038
vt 0.252215 0.000000
vt 0.375910 0.000000
vt 0.375910 1.000000
vt 0.252215 1.000000
vt 0.633328 0.162962
vt 0.741672 0.162962
vt 0.741672 0.837038
vt 0.633328 0.837038
vt 0.252215 0.000000
vt 0.375910 0.000000
vt 0.375910 1.000000
vt 0.252215 1.000000
vt 0.500466 0.969909
vt 0.500468 0.057586
vt 0.611941 0.057652
vt 0.611940 0.969975
vt 0.631757 0.969909
vt 0.631758 0.057586
vt 0.760195 0.057652
vt 0.760194 0.969975
vt 0.130203 0.162962
vt 0.238547 0.162962
vt 0.238547 0.837038
vt 0.130203 0.837038
vt 0.380340 0.000000
vt 0.504035 0.000000
vt 0.504035 1.000000
vt 0.380340 1.000000
vt 0.633328 0.162962
vt 0.741672 0.162962
vt 0.741672 0.837038
vt 0.633328 0.837038
vt 0.380340 0.000000
vt 0.504035 0.000000
vt 0.504035 1.000000
vt 0.380340 1.000000
vt 0.258327 0.960205
vt 0.258328 0.057612
vt 0.369801 0.057625
vt 0.369800 0.960217
vt 0.258327 0.960205
vt 0.258328 0.057612
vt 0.369801 0.057625
vt 0.369800 0.960217
vt 0.130203 0.162962
vt 0.238547 0.162962
vt 0.238547 0.837038
vt 0.130203 0.837038
vt 0.252215 0.000000
vt 0.375910 0.000000
vt 0.375910 1.000000
vt 0.252215 1.000000
vt 0.633328 0.162962
vt 0.741672 0.162962
vt 0.741672 0.837038
vt 0.633328 0.837038
vt 0.252215 0.000000
vt 0.375910 0.000000
vt 0.375910 1.000000
vt 0.252215 1.000000
vt 0.500466 0.969909
vt 0.500468 0.057586
vt 0.611941 0.057652
vt 0.611940 0.969975
vt 0.500466 0.969909
vt 0.500468 0.057586
vt 0.611941 0.057652
vt 0.611940 0.969975
vt 0.130203 0.162962
vt 0.238547 0.162962
vt 0.238547 0.837038
vt 0.130203 0.837038
vt 0.124090 0.000000
vt 0.247785 0.000000
vt 0.247785 1.000000
vt 0.124090 1.000000
vt 0.633328 0.162962
vt 0.741672 0.162962
vt 0.741672 0.837038
vt 0.633328 0.837038
vt 0.124090 0.000000
vt 0.247785 0.000000
vt 0.247785 1.000000
vt 0.124090 1.000000
vt 0.628637 0.971149
vt 0.628638 0.064562
vt 0.740111 0.064592
vt 0.740110 0.971179
vt 0.628637 0.971149
vt 0.628638 0.064562
vt 0.740111 0.064592
vt 0.740110 0.971179
vt 0.252215 0.000000
vt 0.375910 0.000000
vt 0.375910 1.000000
vt 0.252215 1.000000
vt 0.252215 0.000000
vt 0.375910 0.000000
vt 0.375910 1.000000
vt 0.252215 1.000000
vt 0.130203 0.162962
vt 0.238547 0.162962
vt 0.238547 0.837038
vt 0.130203 0.837038
vt 0.633328 0.162962
vt 0.741672 0.162962
vt 0.741672 0.837038
vt 0.633328 0.837038
vt 0.251764 0.970360
vt 0.251756 0.033453
vt 0.376361 0.029640
vt 0.376369 0.966547
vt 0.251764 0.970360
vt 0.251756 0.033453
vt 0.376361 0.029640
vt 0.376369 0.966547
vt 0.382144 0.000000
vt 0.505839 0.000000
vt 0.505839 1.000000
vt 0.382144 1.000000
vt 0.382144 0.000000
vt 0.505839 0.000000
vt 0.505839 1.000000
vt 0.382144 1.000000
vt 0.260133 0.162962
vt 0.368476 0.162962
vt 0.368476 0.837038
vt 0.260133 0.837038
vt 0.763258 0.162962
vt 0.871601 0.162962
vt 0.871601 0.837038
vt 0.763258 0.837038
vt 0.381693 0.970360
vt 0.381685 0.033453
vt 0.506291 0.029640
vt 0.506298 0.966547
vt 0.381693 0.970360
vt 0.381685 0.033453
vt 0.506291 0.029640
vt 0.506298 0.966547
vt 0.000000 0.000000
vt 0.000000 0.000000
vt 0.000000 0.000000
vt 0.000000 0.000000
vt 0.000000 0.000000
vt 0.000000 0.000000
vt 0.000000 0.000000
vt 0.000000 0.000000
vt 0.000000 0.000000
vt 0.000000 0.000000
vt 0.000000 0.000000
vt 0.000000 0.000000
vt 0.000000 0.000000
vt 0.000000 0.000000
vt 0.000000 0.000000
vt 0.000000 0.000000
vt 0.000000 0.000000
vt 0.000000 0.000000
vt 0.000000 0.000000
vt 0.000000 0.000000
vt 0.000000 0.000000
vt 0.000000 0.000000
vt 0.000000 0.000000
vt 0.000000 0.000000
vn -0.5773 -0.5773 0.5773
vn -0.5773 0.5773 0.5773
vn -0.5773 0.5773 -0.5773
vn -0.5773 -0.5773 -0.5773
vn 0.5773 0.5773 -0.5773
vn 0.5773 -0.5773 -0.5773
vn 0.5773 0.5773 0.5773
vn 0.5773 -0.5773 0.5773
vn -0.5773 -0.4916 0.6519
vn -0.5773 0.6519 0.4916
vn -0.5773 0.4916 -0.6519
vn -0.5773 -0.6519 -0.4916
vn 0.5773 0.4916 -0.6519
vn 0.5773 -0.6519 -0.4916
vn 0.5773 0.6519 0.4916
vn 0.5773 -0.4916 0.6519
vn -0.5783 -0.4811 0.6588
vn -0.5764 0.6599 0.4819
vn -0.5783 0.4811 -0.6588
vn -0.5764 -0.6599 -0.4819
vn 0.5783 0.4811 -0.6588
vn 0.5764 -0.6599 -0.4819
vn 0.5764 0.6599 0.4819
vn 0.5783 -0.4811 0.6588
vn -0.5783 0.5807 0.5730
vn -0.5764 0.5739 -0.5817
vn -0.5783 -0.5807 -0.5730
vn -0.5764 -0.5739 0.5817
vn 0.5783 -0.5807 -0.5730
vn 0.5764 -0.5739 0.5817
vn 0.5764 0.5739 -0.5817
vn 0.5783 0.5807 0.5730
vn -0.5764 0.5776 0.5780
vn 0.5783 0.5770 0.5766
vn 0.5783 0.5770 -0.5766
vn -0.5764 0.5776 -0.5780
vn -0.5783 -0.5770 -0.5766
vn 0.5764 -0.5776 -0.5780
vn 0.5764 -0.5776 0.5780
vn -0.5783 -0.5770 0.5766
usemtl None
s 1
f 1/1/1 2/2/2 4/3/3 3/4/4
f 3/5/4 4/6/3 8/7/5 7/8/6
f 7/9/6 8/10/5 6/11/7 5/12/8
f 5/13/8 6/14/7 2/15/2 1/16/1
f 3/17/4 7/18/6 5/19/8 1/20/1
f 9/21/1 10/22/2 12/23/3 11/24/4
f 11/25/4 12/26/3 16/27/5 15/28/6
f 15/29/6 16/30/5 14/31/7 13/32/8
f 13/33/8 14/34/7 10/35/2 9/36/1
f 11/37/4 15/38/6 13/39/8 9/40/1
f 17/41/1 18/42/2 20/43/3 19/44/4
f 19/45/4 20/46/3 24/47/5 23/48/6
f 23/49/6 24/50/5 22/51/7 21/52/8
f 21/53/8 22/54/7 18/55/2 17/56/1
f 19/57/4 23/58/6 21/59/8 17/60/1
f 25/61/1 26/62/2 28/63/3 27/64/4
f 27/65/4 28/66/3 32/67/5 31/68/6
f 31/69/6 32/70/5 30/71/7 29/72/8
f 29/73/8 30/74/7 26/75/2 25/76/1
f 27/77/4 31/78/6 29/79/8 25/80/1
f 33/81/9 34/82/10 36/83/11 35/84/12
f 35/85/12 36/86/11 40/87/13 39/88/14
f 39/89/14 40/90/13 38/91/15 37/92/16
f 37/93/16 38/94/15 34/95/10 33/96/9
f 40/97/13 36/98/11 34/99/10 38/100/15
f 41/101/9 42/102/10 44/103/11 43/104/12
f 43/105/12 44/106/11 48/107/13 47/108/14
f 47/109/14 48/110/13 46/111/15 45/112/16
f 45/113/16 46/114/15 42/115/10 41/116/9
f 48/117/13 44/118/11 42/119/10 46/120/15
f 49/121/17 50/122/18 52/123/19 51/124/20
f 51/125/20 52/126/19 56/127/21 55/128/22
f 55/129/22 56/130/21 54/131/23 53/132/24
f 53/133/24 54/134/23 50/135/18 49/136/17
f 51/137/20 55/138/22 53/139/24 49/140/17
f 56/141/21 52/142/19 50/143/18 54/144/23
f 57/145/17 58/146/18 60/147/19 59/148/20
f 59/149/20 60/150/19 64/151/21 63/152/22
f 63/153/22 64/154/21 62/155/23 61/156/24
f 61/157/24 62/158/23 58/159/18 57/160/17
f 59/161/20 63/162/22 61/163/24 57/164/17
f 64/165/21 60/166/19 58/167/18 62/168/23
f 65/169/25 66/170/26 68/171/27 67/172/28
f 67/173/28 68/174/27 72/175/29 71/176/30
f 71/177/30 72/178/29 70/179/31 69/180/32
f 69/181/32 70/182/31 66/183/26 65/184/25
f 67/185/28 71/186/30 69/187/32 65/188/25
f 72/189/29 68/190/27 66/191/26 70/192/31
f 73/193/25 74/194/26 76/195/27 75/196/28
f 75/197/28 76/198/27 80/199/29 79/200/30
f 79/201/30 80/202/29 78/203/31 77/204/32
f 77/205/32 78/206/31 74/207/26 73/208/25
f 75/209/28 79/210/30 77/211/32 73/212/25
f 80/213/29 76/214/27 74/215/26 78/216/31
f 81/217/25 82/218/26 84/219/27 83/220/28
f 83/221/28 84/222/27 88/223/29 87/224/30
f 87/225/30 88/226/29 86/227/31 85/228/32
f 85/229/32 86/230/31 82/231/26 81/232/25
f 83/233/28 87/234/30 85/235/32 81/236/25
f 88/237/29 84/238/27 82/239/26 86/240/31
f 92/241/33 91/242/34 95/243/35 96/244/36
f 94/245/37 93/246/38 89/247/39 90/248/40
f 96/249/36 95/250/35 93/251/38 94/252/37
f 90/253/40 89/254/39 91/255/34 92/256/33
f 94/257/37 90/258/40 92/259/33 96/260/36
f 89/261/39 93/262/38 95/263/35 91/264/34
f 100/265/33 99/266/34 103/267/35 104/268/36
f 102/269/37 101/270/38 97/271/39 98/272/40
f 104/273/36 103/274/35 101/275/38 102/276/37
f 98/277/40 97/278/39 99/279/34 100/280/33
f 102/281/37 98/282/40 100/283/33 104/284/36
f 97/285/39 101/286/38 103/287/35 99/288/34
usemtl None_NONE
f 8/289/5 4/290/3 2/291/2 6/292/7
f 16/293/5 12/294/3 10/295/2 14/296/7
f 24/297/5 20/298/3 18/299/2 22/300/7
f 32/301/5 28/302/3 26/303/2 30/304/7
f 35/305/12 39/306/14 37/307/16 33/308/9
f 43/309/12 47/310/14 45/311/16 41/312/9
