# Blender v2.79 (sub 0) OBJ File: ''
# www.blender.org
mtllib coin.mtl
o Cylinder_Cylinder.001
v 0.000000 0.034887 0.197896
v 0.000000 -0.034887 0.244283
v 0.172734 -0.034887 0.172734
v 0.139933 0.034887 0.139934
v 0.244283 -0.034887 -0.000000
v 0.197896 0.034887 0.000000
v 0.172734 -0.034887 -0.172734
v 0.139933 0.034887 -0.139934
v 0.000000 -0.034887 -0.244283
v 0.000000 0.034887 -0.197896
v -0.172734 -0.034887 -0.172734
v -0.139934 0.034887 -0.139934
v -0.244283 -0.034887 -0.000000
v -0.197896 0.034887 0.000000
v -0.172734 -0.034887 0.172734
v -0.139934 0.034887 0.139934
vt 0.732298 0.287825
vt 0.773395 0.190432
vt 0.921829 0.487625
vt 0.842134 0.487982
vt 0.800405 0.809727
vt 0.725362 0.736584
vt 0.490522 0.921077
vt 0.510890 0.838130
vt 0.204668 0.801993
vt 0.288807 0.747473
vt 0.082657 0.488952
vt 0.169823 0.498933
vt 0.213212 0.209153
vt 0.275608 0.261640
vt 0.507056 0.854641
vt 0.747244 0.755151
vt 0.846734 0.514963
vt 0.747244 0.274774
vt 0.507056 0.175285
vt 0.266867 0.274774
vt 0.167378 0.514963
vt 0.266867 0.755151
vt 0.508599 0.085565
vt 0.494290 0.179731
vt 0.504170 0.854641
vt 0.744359 0.755151
vt 0.843848 0.514963
vt 0.744359 0.274774
vt 0.504170 0.175285
vt 0.263981 0.274774
vt 0.164492 0.514963
vt 0.263981 0.755151
vn 0.3261 0.5234 0.7872
vn 0.7872 0.5234 0.3261
vn 0.7872 0.5234 -0.3261
vn 0.3261 0.5234 -0.7872
vn -0.3261 0.5234 -0.7872
vn -0.7872 0.5234 -0.3261
vn 0.0000 -1.0000 -0.0000
vn -0.7872 0.5234 0.3261
vn -0.3261 0.5234 0.7872
vn 0.0000 1.0000 0.0000
usemtl None
s 1
f 1/1/1 2/2/1 3/3/1 4/4/1
f 4/4/2 3/3/2 5/5/2 6/6/2
f 6/6/3 5/5/3 7/7/3 8/8/3
f 8/8/4 7/7/4 9/9/4 10/10/4
f 10/10/5 9/9/5 11/11/5 12/12/5
f 12/12/6 11/11/6 13/13/6 14/14/6
f 3/15/7 2/16/7 15/17/7 13/18/7 11/19/7 9/20/7 7/21/7 5/22/7
f 14/14/8 13/13/8 15/23/8 16/24/8
f 16/24/9 15/23/9 2/2/9 1/1/9
f 1/25/10 4/26/10 6/27/10 8/28/10 10/29/10 12/30/10 14/31/10 16/32/10
