# Blender v2.79 (sub 0) OBJ File: 'hall.blend'
# www.blender.org
mtllib wallpartS.mtl
o Plane.001
v -12.195259 6.600000 -3.807742
v -12.195259 6.600000 9.985755
v -13.625467 6.600000 9.985755
v -13.625467 6.600000 -3.807742
v -12.771722 0.799998 9.985755
v -12.771722 0.799998 -3.807744
v -11.173146 0.000000 9.985755
v -11.173146 0.799998 9.985755
v -11.173146 0.000000 -3.807744
v -11.173146 0.799998 -3.807744
v -13.968624 1.178813 3.857865
v -13.968624 4.938198 3.857865
v -13.968624 1.178813 2.551066
v -13.968624 4.938198 2.551066
v -11.866348 1.178813 3.857865
v -11.866348 4.938198 3.857865
v -11.866348 1.178813 2.551066
v -11.866348 4.938198 2.551066
v -13.968624 7.422278 2.015279
v -11.304989 7.422278 2.015279
v -13.968624 4.938198 2.289706
v -11.604989 4.938198 2.289706
v -11.604989 4.938198 4.119225
v -13.968624 4.938198 4.119225
v -13.968624 5.822278 4.119225
v -13.968624 5.822278 2.289706
v -11.604989 5.822278 2.289706
v -11.604989 5.822278 4.119225
v -13.968624 7.422278 4.393652
v -11.304989 7.422278 4.393652
v -11.304989 5.822278 2.015279
v -11.304989 6.922278 2.015279
v -11.304989 6.922278 4.393652
v -13.968624 6.922278 4.393652
v -13.968624 6.922278 2.015279
v -13.968624 5.822278 4.393652
v -13.968624 5.822278 2.015279
v -11.304989 5.822278 4.393652
v -10.944989 7.422278 1.658522
v -10.944989 6.922278 1.658522
v -13.968624 6.922278 1.658522
v -13.968624 7.422278 1.658522
v -10.944989 7.422278 4.750408
v -10.944989 6.922278 4.750408
v -13.968624 6.922278 4.750408
v -13.968624 7.422278 4.750408
v -12.195259 5.410000 -3.807742
v -12.195259 5.410000 9.985755
v -12.771722 0.000000 9.985755
v -12.771722 0.000000 -3.807742
v -12.771722 5.410000 -3.807742
v -12.771722 5.410000 9.985755
v -14.140467 7.422278 4.393652
v -14.140467 7.422278 2.015279
v -14.140467 6.922278 4.393652
v -14.140467 6.922278 2.015279
v -14.500469 7.422278 4.750408
v -14.500469 6.922278 4.750408
v -14.500469 7.422278 1.658522
v -14.500469 6.922278 1.658522
v -13.625467 5.822278 9.985755
v -13.625467 5.822278 -3.807742
v -14.140467 5.822278 4.393652
v -14.140467 5.822278 2.015279
v -13.968624 1.178813 4.578780
v -13.968624 1.178813 1.830150
v -11.496058 1.178813 4.578780
v -11.496058 1.178813 1.830150
v -13.968624 0.799998 4.578780
v -13.968624 0.799998 1.830150
v -11.496058 0.799998 4.578780
v -11.496058 0.799998 1.830150
vt 0.000054 0.079651
vt 0.999946 0.079650
vt 0.999946 0.223590
vt 0.000054 0.223592
vt 0.999946 0.224862
vt 0.000054 0.224863
vt 0.000054 0.080623
vt 0.999946 0.080622
vt 0.999958 0.001765
vt 0.999958 0.074925
vt 0.000042 0.074926
vt 0.000042 0.001764
vt 0.999958 0.229489
vt 0.000042 0.229490
vt 0.999946 0.080295
vt 0.000054 0.080296
vt 0.000054 0.004269
vt 0.999946 0.004269
vt 0.000054 0.081807
vt 0.999946 0.081806
vt 0.999946 0.228698
vt 0.000054 0.228698
vt 0.704131 0.273447
vt 0.701587 0.044982
vt 0.738149 0.044858
vt 0.741008 0.301727
vt 0.477547 0.666960
vt 0.721638 0.666960
vt 0.721638 0.793119
vt 0.477547 0.793119
vt 0.613338 0.448662
vt 0.451150 0.448662
vt 0.451150 0.312378
vt 0.613338 0.312378
vt 0.952897 0.307766
vt 0.952897 0.563258
vt 0.747321 0.563258
vt 0.747321 0.307766
vt 0.735129 0.011724
vt 0.735130 0.292995
vt 0.488743 0.292995
vt 0.488743 0.011724
vt 0.724185 0.008764
vt 0.724185 0.296815
vt 0.473974 0.296815
vt 0.473974 0.008764
vt 0.247083 0.190064
vt 0.485043 0.190064
vt 0.485043 0.298199
vt 0.247083 0.298199
vt 0.705796 0.033300
vt 0.482490 0.033300
vt 0.482490 -0.001193
vt 0.734138 -0.001193
vt 0.518781 0.045602
vt 0.521325 0.274066
vt 0.485080 0.302593
vt 0.482220 0.045726
vt 0.437657 0.318695
vt 0.616910 0.318695
vt 0.616910 0.447305
vt 0.437657 0.447305
vt 0.482492 0.263255
vt 0.705796 0.263255
vt 0.734139 0.297748
vt 0.482492 0.297748
vt 0.602115 0.642035
vt 0.465999 0.641975
vt 0.466041 0.487063
vt 0.602158 0.487123
vt 0.240624 0.187420
vt 0.484376 0.187420
vt 0.484376 0.300155
vt 0.240624 0.300155
vt 0.258641 0.191191
vt 0.480684 0.191191
vt 0.480684 0.306123
vt 0.258641 0.306124
vt 0.762184 0.333480
vt 0.762184 0.517169
vt 0.737582 0.517169
vt 0.737582 0.308654
vt 0.480684 0.306873
vt 0.258641 0.306874
vt 0.258641 0.191941
vt 0.480684 0.191941
vt 0.620506 0.665280
vt 0.465993 0.665212
vt 0.721638 0.795805
vt 0.477547 0.795804
vt 0.477547 0.669645
vt 0.721638 0.669645
vt 0.434485 0.673275
vt 0.734265 0.673275
vt 0.734265 0.792877
vt 0.434485 0.792877
vt 0.926201 0.517169
vt 0.926201 0.333480
vt 0.950803 0.308654
vt 0.950803 0.517169
vt 0.620561 0.463894
vt 0.466047 0.463826
vt 0.734265 0.791047
vt 0.434485 0.791047
vt 0.434485 0.671445
vt 0.734265 0.671445
vt 0.457260 0.487059
vt 0.457218 0.641971
vt 0.438814 0.665200
vt 0.438869 0.463814
vt 0.762184 0.529020
vt 0.926201 0.529020
vt 0.950803 0.553846
vt 0.737582 0.553846
vt 0.434612 0.793120
vt 0.434612 0.666960
vt 0.434613 0.795805
vt 0.434612 0.669645
vt 0.428136 0.307605
vt 0.624989 0.307605
vt 0.624989 0.454969
vt 0.428136 0.454969
vt 0.244316 0.306124
vt 0.244316 0.191191
vt 0.244316 0.306873
vt 0.244316 0.191941
vt 0.690356 0.080595
vt 0.476666 0.080596
vt 0.476666 0.003715
vt 0.727994 0.003715
vt 0.690356 0.219956
vt 0.727995 0.296836
vt 0.476667 0.219956
vt 0.476667 0.296836
vt 0.483763 0.303951
vt 0.242449 0.303951
vt 0.242449 0.190480
vt 0.483763 0.190480
vt 0.480269 0.300445
vt 0.249278 0.300445
vt 0.249278 0.184683
vt 0.480269 0.184683
vt 0.241332 0.190513
vt 0.482646 0.190513
vt 0.482646 0.303983
vt 0.241332 0.303983
vt -1.185719 -0.848982
vt 2.185719 -0.848982
vt 2.185719 1.241272
vt -1.185719 1.241272
vn 0.7071 -0.7071 0.0000
vn 0.7071 0.7071 0.0000
vn -0.7071 0.7071 0.0000
vn 1.0000 0.0000 0.0000
vn 0.0000 1.0000 0.0000
vn -1.0000 0.0000 0.0000
vn 0.3015 -0.9045 -0.3015
vn 0.0000 -0.7071 -0.7071
vn 0.5773 -0.5773 -0.5773
vn 0.0000 -0.7071 0.7071
vn 0.5773 -0.5773 0.5773
vn 0.5773 0.5773 0.5773
vn 0.0000 0.7071 0.7071
vn 0.0000 0.7071 -0.7071
vn 0.3015 0.9045 -0.3015
vn 0.3015 -0.9045 0.3015
vn 0.3015 0.9045 0.3015
vn 0.0000 -0.4472 -0.8944
vn 0.0000 -0.4472 0.8944
vn 0.5773 0.5773 -0.5773
vn -0.5773 -0.5773 -0.5773
vn -0.5773 -0.5773 0.5773
vn -0.5773 0.5773 0.5773
vn -0.5773 0.5773 -0.5773
vn -0.3015 -0.9045 -0.3015
vn -0.3015 -0.9045 0.3015
vn -0.7071 0.0000 -0.7071
vn -0.7071 0.0000 0.7071
vn 0.0000 0.0000 1.0000
vn 0.7071 0.0000 0.7071
vn 0.7071 0.0000 -0.7071
vn 0.0000 0.0000 -1.0000
usemtl None
s 1
f 48/1/1 47/2/1 1/3/2 2/4/2
f 4/5/3 3/6/3 2/7/2 1/8/2
f 9/9/4 10/10/2 8/11/2 7/12/4
f 10/10/2 6/13/5 5/14/5 8/11/2
f 47/15/1 48/16/1 52/17/1 51/18/1
f 3/19/3 4/20/3 62/21/6 61/22/6
usemtl None_FloorTexture.png
f 18/23/7 14/24/8 21/25/8 22/26/9
f 45/27/10 44/28/11 43/29/12 46/30/13
f 22/31/9 21/32/8 26/33/8 27/34/7
f 13/35/14 14/36/8 18/37/7 17/38/15
f 17/39/15 18/40/7 16/41/16 15/42/17
f 15/43/17 16/44/16 12/45/10 11/46/13
f 23/47/11 22/48/9 27/49/7 28/50/16
f 27/51/7 26/52/8 37/53/18 31/54/9
f 12/55/10 16/56/16 23/57/11 24/58/10
f 24/59/10 23/60/11 28/61/16 25/62/10
f 16/56/16 18/23/7 22/26/9 23/57/11
f 25/63/10 28/64/16 38/65/11 36/66/19
f 20/67/5 19/68/5 29/69/5 30/70/5
f 28/64/16 27/51/7 31/54/9 38/65/11
f 38/71/11 31/72/9 32/73/7 33/74/16
f 36/75/19 38/76/11 33/77/16 34/78/10
f 32/79/7 35/80/8 41/81/8 40/82/9
f 31/83/9 37/84/18 35/85/8 32/86/7
f 19/68/5 20/67/5 39/87/20 42/88/14
f 40/89/9 41/90/8 42/91/14 39/92/20
f 44/93/11 40/94/9 39/95/20 43/96/12
f 34/97/10 33/98/16 44/99/11 45/100/10
f 20/67/5 30/70/5 43/101/12 39/87/20
f 30/70/5 29/69/5 46/102/13 43/101/12
f 33/98/16 32/79/7 40/82/9 44/99/11
f 60/103/21 58/104/22 57/105/23 59/106/24
f 53/107/5 54/108/5 59/109/24 57/110/23
f 56/111/25 55/112/26 58/113/22 60/114/21
f 19/68/5 54/108/5 53/107/5 29/69/5
f 34/97/10 45/100/10 58/113/22 55/112/26
f 46/102/13 29/69/5 53/107/5 57/110/23
f 45/27/10 46/30/13 57/115/23 58/116/22
f 42/88/14 59/109/24 54/108/5 19/68/5
f 41/81/8 35/80/8 56/111/25 60/114/21
f 42/91/14 41/90/8 60/117/21 59/118/24
f 55/119/26 56/120/25 64/121/27 63/122/28
f 34/78/10 55/123/26 63/124/28 36/75/19
f 37/84/18 64/125/27 56/126/25 35/85/8
f 15/127/17 11/128/13 65/129/13 67/130/12
f 17/131/15 15/127/17 67/130/12 68/132/20
f 13/133/14 17/131/15 68/132/20 66/134/14
f 67/135/12 65/136/13 69/137/29 71/138/30
f 68/139/20 67/140/12 71/141/30 72/142/31
f 66/143/14 68/144/20 72/145/31 70/146/32
usemtl None_WallTexture.png
f 49/147/4 50/148/4 51/149/1 52/150/1
