# Blender v2.79 (sub 0) OBJ File: 'hall.blend'
# www.blender.org
mtllib wallpartC.mtl
o Plane.012
v -5.205904 0.000000 -11.373560
v -12.195258 6.600000 -3.807740
v -13.625467 6.600000 -3.807740
v -12.771721 0.799998 -3.807740
v -12.771721 0.799998 -9.774987
v -11.173145 0.000000 -3.807740
v -11.173145 0.799998 -3.807740
v -11.173145 0.000000 -9.774987
v -11.173145 0.799998 -9.774987
v -5.205905 0.799998 -11.373561
v -5.205905 0.799998 -9.774987
v -5.205905 0.000000 -9.774987
v -5.205904 5.822278 -12.227306
v -12.195258 5.822278 -12.227305
v -12.771719 5.410000 -11.373560
v -5.205904 5.410000 -11.373560
v -12.771720 0.000000 -11.373560
v -12.195258 5.410000 -3.807740
v -12.771721 0.000000 -3.807740
v -13.625467 6.600000 -12.227305
v -12.771721 5.410000 -3.807740
v -12.195258 5.410000 -10.797097
v -5.205904 5.410000 -10.797097
v -5.205904 6.600000 -12.227306
v -12.195258 6.600000 -12.227305
v -12.195258 6.600000 -10.797098
v -5.205904 6.600000 -10.797097
v -13.625467 5.822278 -10.797098
v -13.625467 5.822278 -3.807740
v -13.625467 5.822278 -12.227305
v -11.173145 0.799998 -11.373561
v -12.771721 0.799998 -11.373561
v -13.625467 6.600000 -10.797098
v -13.735114 1.178813 -10.449815
v -13.735114 4.938198 -10.449815
v -13.735114 1.178813 -11.948062
v -13.735114 4.938198 -11.948062
v -11.632838 1.178813 -10.449815
v -11.632838 4.938198 -10.449815
v -11.632838 1.178813 -11.948062
v -11.632838 4.938198 -11.948062
v -13.735114 7.422278 -12.562344
v -11.071480 7.422278 -12.562344
v -13.735114 4.938198 -12.247711
v -11.371479 4.938198 -12.247711
v -11.371479 4.938198 -10.150166
v -13.735114 4.938198 -10.150166
v -13.735114 5.822278 -10.150166
v -13.735114 5.822278 -12.247711
v -11.371479 5.822278 -12.247711
v -11.371479 5.822278 -10.150166
v -13.735114 7.422278 -9.835533
v -11.071480 7.422278 -9.835533
v -11.071480 5.822278 -12.562344
v -11.071480 6.922278 -12.562344
v -11.071480 6.922278 -9.835533
v -13.735114 6.922278 -9.835533
v -13.735114 6.922278 -12.562344
v -13.735114 5.822278 -9.835533
v -13.735114 5.822278 -12.562344
v -11.071480 5.822278 -9.835533
v -10.711479 7.422278 -12.971365
v -10.711479 6.922278 -12.971365
v -13.735114 6.922278 -12.971365
v -13.735114 7.422278 -12.971365
v -10.711479 7.422278 -9.426512
v -10.711479 6.922278 -9.426512
v -13.735114 6.922278 -9.426512
v -13.735114 7.422278 -9.426512
v -13.906958 7.422278 -9.835533
v -13.906958 7.422278 -12.562344
v -13.906958 6.922278 -9.835533
v -13.906958 6.922278 -12.562344
v -14.266960 7.422278 -9.426512
v -14.266960 6.922278 -9.426512
v -14.266960 7.422278 -12.971365
v -14.266960 6.922278 -12.971365
v -13.906958 5.822278 -9.835533
v -13.906958 5.822278 -12.562344
v -13.851790 1.178813 -10.038619
v -13.851790 1.178813 -13.189929
v -11.379224 1.178813 -10.038619
v -11.379224 1.178813 -13.189929
v -13.851790 0.799998 -10.038619
v -13.851790 0.799998 -13.189929
v -11.379224 0.799998 -10.038619
v -11.379224 0.799998 -13.189929
vt 0.250637 0.081295
vt 0.749363 0.081295
vt 0.749362 0.228091
vt 0.250638 0.228091
vt 0.500000 0.007076
vt 0.500000 0.074103
vt 0.000045 0.074103
vt 0.000045 0.007076
vt 0.000028 0.000028
vt 0.999972 0.000028
vt 0.923784 0.080123
vt 0.000028 0.080123
vt 0.500000 0.226786
vt 0.000045 0.226786
vt 0.500000 0.226786
vt 0.999955 0.074103
vt 0.999955 0.226786
vt 0.500000 0.082112
vt 0.999971 0.082112
vt 0.999971 0.222602
vt 0.500000 0.222603
vt 0.999955 0.007076
vt 0.251961 0.001077
vt 0.748039 0.001076
vt 0.748039 0.080568
vt 0.251961 0.080568
vt 0.375408 0.083325
vt 0.495673 0.083325
vt 0.495673 0.227808
vt 0.375408 0.227808
vt 0.748151 0.228872
vt 0.251849 0.228872
vt 0.251849 0.082858
vt 0.748151 0.082858
vt 0.251961 0.001077
vt 0.748039 0.001076
vt 0.748039 0.080568
vt 0.251961 0.080568
vt 0.999972 0.080123
vt 0.076216 0.080123
vt 0.000028 0.000028
vt 0.999972 0.000028
vt 0.000029 0.082112
vt 0.000029 0.222602
vt 0.002344 -0.001172
vt 0.002344 -0.001172
vt 0.002344 -0.001172
vt 0.002344 -0.001172
vt 0.002344 -0.001172
vt 0.002344 -0.001172
vt 0.002344 -0.001172
vt 0.704131 0.273447
vt 0.701587 0.044982
vt 0.738149 0.044858
vt 0.741008 0.301727
vt 0.477547 0.666960
vt 0.721638 0.666960
vt 0.721638 0.793119
vt 0.477547 0.793119
vt 0.613338 0.448662
vt 0.451150 0.448662
vt 0.451150 0.312378
vt 0.613338 0.312378
vt 0.952897 0.307766
vt 0.952897 0.563258
vt 0.747321 0.563258
vt 0.747321 0.307766
vt 0.735129 0.011724
vt 0.735130 0.292995
vt 0.488743 0.292995
vt 0.488743 0.011724
vt 0.724185 0.008764
vt 0.724185 0.296815
vt 0.473974 0.296815
vt 0.473974 0.008764
vt 0.247083 0.190064
vt 0.485043 0.190064
vt 0.485043 0.298199
vt 0.247083 0.298199
vt 0.705796 0.033300
vt 0.482490 0.033300
vt 0.482490 -0.001193
vt 0.734138 -0.001193
vt 0.518781 0.045602
vt 0.521325 0.274066
vt 0.485080 0.302593
vt 0.482220 0.045726
vt 0.437657 0.318695
vt 0.616910 0.318695
vt 0.616910 0.447305
vt 0.437657 0.447305
vt 0.482492 0.263255
vt 0.705796 0.263255
vt 0.734139 0.297748
vt 0.482492 0.297748
vt 0.602115 0.642035
vt 0.465999 0.641975
vt 0.466041 0.487063
vt 0.602158 0.487123
vt 0.240624 0.187420
vt 0.484376 0.187420
vt 0.484376 0.300155
vt 0.240624 0.300155
vt 0.258641 0.191191
vt 0.480684 0.191191
vt 0.480684 0.306123
vt 0.258641 0.306124
vt 0.762184 0.333480
vt 0.762184 0.517169
vt 0.737582 0.517169
vt 0.737582 0.308654
vt 0.480684 0.306873
vt 0.258641 0.306874
vt 0.258641 0.191941
vt 0.480684 0.191941
vt 0.620506 0.665280
vt 0.465993 0.665212
vt 0.721638 0.795805
vt 0.477547 0.795804
vt 0.477547 0.669645
vt 0.721638 0.669645
vt 0.434485 0.673275
vt 0.734265 0.673275
vt 0.734265 0.792877
vt 0.434485 0.792877
vt 0.926201 0.517169
vt 0.926201 0.333480
vt 0.950803 0.308654
vt 0.950803 0.517169
vt 0.620561 0.463894
vt 0.466047 0.463826
vt 0.734265 0.791047
vt 0.434485 0.791047
vt 0.434485 0.671445
vt 0.734265 0.671445
vt 0.457260 0.487059
vt 0.457218 0.641971
vt 0.438814 0.665200
vt 0.438869 0.463814
vt 0.762184 0.529020
vt 0.926201 0.529020
vt 0.950803 0.553846
vt 0.737582 0.553846
vt 0.434612 0.793120
vt 0.434612 0.666960
vt 0.434613 0.795805
vt 0.434612 0.669645
vt 0.428136 0.307605
vt 0.624989 0.307605
vt 0.624989 0.454969
vt 0.428136 0.454969
vt 0.244316 0.306124
vt 0.244316 0.191191
vt 0.244316 0.306873
vt 0.244316 0.191941
vt 0.690356 0.080595
vt 0.476666 0.080596
vt 0.476666 0.003715
vt 0.727994 0.003715
vt 0.690356 0.219956
vt 0.727995 0.296836
vt 0.476667 0.219956
vt 0.476667 0.296836
vt 0.483763 0.303951
vt 0.242449 0.303951
vt 0.242449 0.190480
vt 0.483763 0.190480
vt 0.480269 0.300445
vt 0.249278 0.300445
vt 0.249278 0.184683
vt 0.480269 0.184683
vt 0.241332 0.190513
vt 0.482646 0.190513
vt 0.482646 0.303983
vt 0.241332 0.303983
vt -2.810753 -0.850105
vt -0.087500 -0.850106
vt -0.087499 1.241638
vt -2.810753 1.241638
vt 2.635753 -0.850105
vt 2.635752 1.241639
vn 0.7071 0.7071 0.0000
vn 0.3015 0.9045 0.3015
vn -0.7071 0.7071 0.0000
vn 0.7071 0.0000 0.7071
vn 1.0000 0.0000 0.0000
vn 0.7071 -0.7071 0.0000
vn 0.5773 -0.5773 0.5773
vn 0.3015 -0.9045 0.3015
vn 0.0000 1.0000 0.0000
vn 0.0000 0.7071 0.7071
vn 0.0000 -0.7071 0.7071
vn 0.0000 0.0000 1.0000
vn -1.0000 0.0000 0.0000
vn 0.0000 0.7071 -0.7071
vn 0.0000 0.0000 -1.0000
vn -0.7071 0.0000 -0.7071
vn -0.5773 0.5773 -0.5773
vn 0.3015 -0.9045 -0.3015
vn 0.0000 -0.7071 -0.7071
vn 0.5773 -0.5773 -0.5773
vn 0.5773 0.5773 0.5773
vn 0.0000 0.7273 -0.6863
vn 0.3015 0.9045 -0.3015
vn 0.0000 0.7618 0.6478
vn 0.0000 -0.4472 -0.8944
vn 0.0000 -0.4472 0.8944
vn 0.5773 0.5773 -0.5773
vn -0.5773 -0.5773 -0.5773
vn -0.5773 -0.5773 0.5773
vn -0.5773 0.5773 0.5773
vn -0.3015 -0.9045 -0.3015
vn -0.3015 -0.9045 0.3015
vn -0.7071 0.0000 0.7071
vn 0.0000 0.6359 0.7718
vn 0.0000 0.6850 -0.7285
vn 0.7071 0.0000 -0.7071
usemtl None
s 1
f 2/1/1 26/2/2 33/3/3 3/4/3
f 8/5/4 9/6/2 7/7/1 6/8/5
f 21/9/6 15/10/7 22/11/8 18/12/6
f 9/6/2 5/13/9 4/14/9 7/7/1
f 31/15/9 9/6/2 11/16/10 10/17/9
f 22/18/8 23/19/11 27/20/10 26/21/2
f 9/6/2 8/5/4 12/22/12 11/16/10
f 3/23/3 33/24/3 28/25/13 29/26/13
f 5/27/9 9/28/2 31/29/9 32/30/9
f 24/31/14 25/32/14 26/33/2 27/34/10
f 25/35/14 24/36/14 13/37/15 14/38/15
f 23/39/11 22/40/8 15/41/7 16/42/11
f 18/43/6 22/18/8 26/21/2 2/44/1
usemtl None_FloorTexture.png
f 25/45/14 14/46/15 30/47/16 20/48/17
f 30/47/16 28/49/13 33/50/3 20/48/17
f 25/45/14 20/48/17 33/50/3 26/51/2
f 41/52/18 37/53/19 44/54/19 45/55/20
f 68/56/11 67/57/7 66/58/21 69/59/10
f 45/60/20 44/61/19 49/62/19 50/63/18
f 36/64/22 37/65/19 41/66/18 40/67/23
f 40/68/23 41/69/18 39/70/8 38/71/2
f 38/72/2 39/73/8 35/74/11 34/75/24
f 46/76/7 45/77/20 50/78/18 51/79/8
f 50/80/18 49/81/19 60/82/25 54/83/20
f 35/84/11 39/85/8 46/86/7 47/87/11
f 47/88/11 46/89/7 51/90/8 48/91/11
f 39/85/8 41/52/18 45/55/20 46/86/7
f 48/92/11 51/93/8 61/94/7 59/95/26
f 43/96/9 42/97/9 52/98/9 53/99/9
f 51/93/8 50/80/18 54/83/20 61/94/7
f 61/100/7 54/101/20 55/102/18 56/103/8
f 59/104/26 61/105/7 56/106/8 57/107/11
f 55/108/18 58/109/19 64/110/19 63/111/20
f 54/112/20 60/113/25 58/114/19 55/115/18
f 42/97/9 43/96/9 62/116/27 65/117/14
f 63/118/20 64/119/19 65/120/14 62/121/27
f 67/122/7 63/123/20 62/124/27 66/125/21
f 57/126/11 56/127/8 67/128/7 68/129/11
f 43/96/9 53/99/9 66/130/21 62/116/27
f 53/99/9 52/98/9 69/131/10 66/130/21
f 56/127/8 55/108/18 63/111/20 67/128/7
f 77/132/28 75/133/29 74/134/30 76/135/17
f 70/136/9 71/137/9 76/138/17 74/139/30
f 73/140/31 72/141/32 75/142/29 77/143/28
f 42/97/9 71/137/9 70/136/9 52/98/9
f 57/126/11 68/129/11 75/142/29 72/141/32
f 69/131/10 52/98/9 70/136/9 74/139/30
f 68/56/11 69/59/10 74/144/30 75/145/29
f 65/117/14 76/138/17 71/137/9 42/97/9
f 64/110/19 58/109/19 73/140/31 77/143/28
f 65/120/14 64/119/19 77/146/28 76/147/17
f 72/148/32 73/149/31 79/150/16 78/151/33
f 57/107/11 72/152/32 78/153/33 59/104/26
f 60/113/25 79/154/16 73/155/31 58/114/19
f 38/156/2 34/157/24 80/158/34 82/159/21
f 40/160/23 38/156/2 82/159/21 83/161/27
f 36/162/22 40/160/23 83/161/27 81/163/35
f 82/164/21 80/165/34 84/166/12 86/167/4
f 83/168/27 82/169/21 86/170/4 87/171/36
f 81/172/35 83/173/27 87/174/36 85/175/15
usemtl None_WallTexture.png
f 19/176/5 17/177/4 15/178/7 21/179/6
f 17/177/4 1/180/12 16/181/11 15/178/7
